<mxfile host="app.diagrams.net" modified="2022-03-17T21:49:49.619Z" agent="5.0 (Windows NT 10.0; Win64; x64) AppleWebKit/537.36 (KHTML, like Gecko) Chrome/99.0.4844.51 Safari/537.36" etag="yT28jj6mJ_un9XDVqFpL" version="16.6.7" type="github">
  <diagram id="eyegzCFOOdZ7thPEiBK8" name="Page-1">
    <mxGraphModel dx="981" dy="548" grid="1" gridSize="10" guides="1" tooltips="1" connect="1" arrows="1" fold="1" page="1" pageScale="1" pageWidth="1169" pageHeight="827" math="0" shadow="0">
      <root>
        <mxCell id="0" />
        <mxCell id="1" parent="0" />
        <mxCell id="j7XD6nWHRz5pciVsjNQp-9" value="" style="rounded=0;whiteSpace=wrap;html=1;fontSize=14;dashed=1;" vertex="1" parent="1">
          <mxGeometry x="450" y="190" width="170" height="240" as="geometry" />
        </mxCell>
        <mxCell id="j7XD6nWHRz5pciVsjNQp-4" value="" style="verticalLabelPosition=bottom;html=1;verticalAlign=top;align=center;strokeColor=none;fillColor=#00BEF2;shape=mxgraph.azure.computer;pointerEvents=1;" vertex="1" parent="1">
          <mxGeometry x="470" y="235" width="120" height="97" as="geometry" />
        </mxCell>
        <mxCell id="j7XD6nWHRz5pciVsjNQp-5" value="" style="html=1;verticalLabelPosition=bottom;align=center;labelBackgroundColor=#ffffff;verticalAlign=top;strokeWidth=2;strokeColor=#0080F0;shadow=0;dashed=0;shape=mxgraph.ios7.icons.smartphone;" vertex="1" parent="1">
          <mxGeometry x="550" y="284" width="50" height="90" as="geometry" />
        </mxCell>
        <mxCell id="j7XD6nWHRz5pciVsjNQp-6" value="&lt;b&gt;&lt;u&gt;&lt;font style=&quot;font-size: 14px&quot;&gt;Users&lt;/font&gt;&lt;/u&gt;&lt;/b&gt;&lt;br&gt;• Students&lt;br&gt;• Universities - Professors, TA&lt;br&gt;• Businesses - Managers, Owners" style="text;html=1;strokeColor=none;fillColor=none;align=left;verticalAlign=middle;whiteSpace=wrap;rounded=0;" vertex="1" parent="1">
          <mxGeometry x="190" y="367" width="180" height="120" as="geometry" />
        </mxCell>
        <mxCell id="j7XD6nWHRz5pciVsjNQp-8" value="&lt;b&gt;&lt;font color=&quot;#ffffff&quot;&gt;Front End&lt;/font&gt;&lt;/b&gt;" style="text;html=1;strokeColor=#6c8ebf;fillColor=#007FFF;align=center;verticalAlign=middle;whiteSpace=wrap;rounded=1;fontSize=14;" vertex="1" parent="1">
          <mxGeometry x="460" y="390" width="150" height="30" as="geometry" />
        </mxCell>
        <mxCell id="j7XD6nWHRz5pciVsjNQp-10" value="What user sees and interact with" style="text;html=1;strokeColor=none;fillColor=none;align=center;verticalAlign=middle;whiteSpace=wrap;rounded=0;dashed=1;fontSize=14;" vertex="1" parent="1">
          <mxGeometry x="475" y="200" width="120" height="30" as="geometry" />
        </mxCell>
        <mxCell id="j7XD6nWHRz5pciVsjNQp-11" value="" style="rounded=0;whiteSpace=wrap;html=1;fontSize=14;dashed=1;" vertex="1" parent="1">
          <mxGeometry x="750" y="270" width="360" height="380" as="geometry" />
        </mxCell>
        <mxCell id="j7XD6nWHRz5pciVsjNQp-12" value="" style="aspect=fixed;perimeter=ellipsePerimeter;html=1;align=center;shadow=0;dashed=0;spacingTop=3;image;image=img/lib/active_directory/generic_server.svg;rounded=1;fontSize=14;fontColor=#FFFFFF;fillColor=#007FFF;" vertex="1" parent="1">
          <mxGeometry x="903.4" y="326" width="53.2" height="95" as="geometry" />
        </mxCell>
        <mxCell id="j7XD6nWHRz5pciVsjNQp-13" value="" style="image;html=1;image=img/lib/clip_art/general/Empty_Folder_128x128.png;rounded=1;dashed=1;fontSize=14;fontColor=#FFFFFF;fillColor=#007FFF;" vertex="1" parent="1">
          <mxGeometry x="822.5" y="487" width="60" height="55" as="geometry" />
        </mxCell>
        <mxCell id="j7XD6nWHRz5pciVsjNQp-14" value="" style="image;html=1;image=img/lib/clip_art/computers/Database_128x128.png;rounded=1;dashed=1;fontSize=14;fontColor=#FFFFFF;fillColor=#007FFF;" vertex="1" parent="1">
          <mxGeometry x="997.5" y="482" width="60" height="60" as="geometry" />
        </mxCell>
        <mxCell id="j7XD6nWHRz5pciVsjNQp-15" value="&lt;font color=&quot;#000000&quot;&gt;&lt;b&gt;Application Logic&lt;/b&gt;&lt;br&gt;&lt;font style=&quot;font-size: 12px&quot;&gt;PHP, JavaScript, Python, Java&lt;/font&gt;&lt;br&gt;&lt;/font&gt;" style="text;html=1;strokeColor=none;fillColor=none;align=center;verticalAlign=middle;whiteSpace=wrap;rounded=0;dashed=1;fontSize=14;fontColor=#FFFFFF;" vertex="1" parent="1">
          <mxGeometry x="830" y="281" width="200" height="30" as="geometry" />
        </mxCell>
        <mxCell id="j7XD6nWHRz5pciVsjNQp-20" style="edgeStyle=orthogonalEdgeStyle;rounded=0;orthogonalLoop=1;jettySize=auto;html=1;exitX=0.25;exitY=1;exitDx=0;exitDy=0;entryX=1;entryY=0.5;entryDx=0;entryDy=0;fontSize=12;fontColor=#000000;strokeColor=#7EA6E0;" edge="1" parent="1" source="j7XD6nWHRz5pciVsjNQp-16" target="j7XD6nWHRz5pciVsjNQp-17">
          <mxGeometry relative="1" as="geometry">
            <Array as="points">
              <mxPoint x="918" y="565" />
            </Array>
          </mxGeometry>
        </mxCell>
        <mxCell id="j7XD6nWHRz5pciVsjNQp-21" style="edgeStyle=orthogonalEdgeStyle;rounded=0;orthogonalLoop=1;jettySize=auto;html=1;exitX=0.75;exitY=1;exitDx=0;exitDy=0;entryX=0;entryY=0.5;entryDx=0;entryDy=0;fontSize=12;fontColor=#000000;strokeColor=#7EA6E0;" edge="1" parent="1" source="j7XD6nWHRz5pciVsjNQp-16" target="j7XD6nWHRz5pciVsjNQp-18">
          <mxGeometry relative="1" as="geometry">
            <Array as="points">
              <mxPoint x="953" y="565" />
            </Array>
          </mxGeometry>
        </mxCell>
        <mxCell id="j7XD6nWHRz5pciVsjNQp-16" value="Web Server" style="text;html=1;strokeColor=#666666;fillColor=#f5f5f5;align=center;verticalAlign=middle;whiteSpace=wrap;rounded=1;fontSize=12;fontColor=#333333;" vertex="1" parent="1">
          <mxGeometry x="900" y="440" width="70" height="30" as="geometry" />
        </mxCell>
        <mxCell id="j7XD6nWHRz5pciVsjNQp-19" style="edgeStyle=orthogonalEdgeStyle;rounded=0;orthogonalLoop=1;jettySize=auto;html=1;exitX=0;exitY=0;exitDx=0;exitDy=0;entryX=0;entryY=0.5;entryDx=0;entryDy=0;fontSize=12;fontColor=#000000;strokeColor=#7EA6E0;" edge="1" parent="1" source="j7XD6nWHRz5pciVsjNQp-17" target="j7XD6nWHRz5pciVsjNQp-16">
          <mxGeometry relative="1" as="geometry" />
        </mxCell>
        <mxCell id="j7XD6nWHRz5pciVsjNQp-17" value="File System" style="text;html=1;strokeColor=#666666;fillColor=#f5f5f5;align=center;verticalAlign=middle;whiteSpace=wrap;rounded=1;fontSize=12;fontColor=#333333;glass=0;" vertex="1" parent="1">
          <mxGeometry x="805" y="550" width="95" height="30" as="geometry" />
        </mxCell>
        <mxCell id="j7XD6nWHRz5pciVsjNQp-22" style="edgeStyle=orthogonalEdgeStyle;rounded=0;orthogonalLoop=1;jettySize=auto;html=1;exitX=1;exitY=0;exitDx=0;exitDy=0;entryX=1;entryY=0.5;entryDx=0;entryDy=0;fontSize=12;fontColor=#000000;strokeColor=#7EA6E0;" edge="1" parent="1" source="j7XD6nWHRz5pciVsjNQp-18" target="j7XD6nWHRz5pciVsjNQp-16">
          <mxGeometry relative="1" as="geometry" />
        </mxCell>
        <mxCell id="j7XD6nWHRz5pciVsjNQp-18" value="Data Source" style="text;html=1;strokeColor=#666666;fillColor=#f5f5f5;align=center;verticalAlign=middle;whiteSpace=wrap;rounded=1;fontSize=12;fontColor=#333333;" vertex="1" parent="1">
          <mxGeometry x="970" y="550" width="115" height="30" as="geometry" />
        </mxCell>
        <mxCell id="j7XD6nWHRz5pciVsjNQp-23" value="&lt;b&gt;&lt;font color=&quot;#ffffff&quot;&gt;Back End&lt;/font&gt;&lt;/b&gt;" style="text;html=1;strokeColor=#6c8ebf;fillColor=#007FFF;align=center;verticalAlign=middle;whiteSpace=wrap;rounded=1;fontSize=14;" vertex="1" parent="1">
          <mxGeometry x="760" y="610" width="340" height="30" as="geometry" />
        </mxCell>
        <mxCell id="j7XD6nWHRz5pciVsjNQp-24" value="" style="shape=flexArrow;endArrow=classic;html=1;rounded=0;fontSize=12;fontColor=#000000;strokeColor=#007FFF;fillColor=#007FFF;sketch=0;width=1.3333333333333333;endSize=3;endWidth=10.222222222222223;" edge="1" parent="1">
          <mxGeometry width="50" height="50" relative="1" as="geometry">
            <mxPoint x="330" y="304.71" as="sourcePoint" />
            <mxPoint x="430" y="304.71" as="targetPoint" />
            <Array as="points">
              <mxPoint x="380" y="304.71" />
            </Array>
          </mxGeometry>
        </mxCell>
        <mxCell id="j7XD6nWHRz5pciVsjNQp-25" value="" style="shape=flexArrow;endArrow=classic;html=1;rounded=0;fontSize=12;fontColor=#000000;strokeColor=#007FFF;fillColor=#007FFF;sketch=0;width=1.3333333333333333;endSize=3;endWidth=10.222222222222223;" edge="1" parent="1">
          <mxGeometry width="50" height="50" relative="1" as="geometry">
            <mxPoint x="430" y="315" as="sourcePoint" />
            <mxPoint x="330" y="315" as="targetPoint" />
            <Array as="points">
              <mxPoint x="380" y="315" />
            </Array>
          </mxGeometry>
        </mxCell>
        <mxCell id="j7XD6nWHRz5pciVsjNQp-26" value="" style="rounded=0;whiteSpace=wrap;html=1;fontSize=14;dashed=1;" vertex="1" parent="1">
          <mxGeometry x="450" y="500" width="170" height="240" as="geometry" />
        </mxCell>
        <mxCell id="j7XD6nWHRz5pciVsjNQp-29" value="&lt;b&gt;&lt;font color=&quot;#ffffff&quot;&gt;3rd Party Services&lt;/font&gt;&lt;/b&gt;" style="text;html=1;strokeColor=#6c8ebf;fillColor=#007FFF;align=center;verticalAlign=middle;whiteSpace=wrap;rounded=1;fontSize=14;" vertex="1" parent="1">
          <mxGeometry x="460" y="700" width="150" height="30" as="geometry" />
        </mxCell>
        <mxCell id="j7XD6nWHRz5pciVsjNQp-30" value="Payment, Maps and other integrations" style="text;html=1;strokeColor=none;fillColor=none;align=center;verticalAlign=middle;whiteSpace=wrap;rounded=0;dashed=1;fontSize=14;" vertex="1" parent="1">
          <mxGeometry x="467.5" y="520" width="135" height="30" as="geometry" />
        </mxCell>
        <mxCell id="j7XD6nWHRz5pciVsjNQp-32" value="Services" style="html=1;strokeColor=none;fillColor=#0079D6;labelPosition=center;verticalLabelPosition=middle;verticalAlign=top;align=center;fontSize=12;outlineConnect=0;spacingTop=-6;fontColor=#FFFFFF;sketch=0;shape=mxgraph.sitemap.services;rounded=1;glass=0;" vertex="1" parent="1">
          <mxGeometry x="487.5" y="590" width="95" height="60" as="geometry" />
        </mxCell>
        <mxCell id="j7XD6nWHRz5pciVsjNQp-33" value="" style="shape=flexArrow;endArrow=classic;html=1;rounded=0;fontSize=12;fontColor=#000000;strokeColor=#007FFF;fillColor=#007FFF;sketch=0;width=1.3333333333333333;endSize=3;endWidth=10.222222222222223;" edge="1" parent="1">
          <mxGeometry width="50" height="50" relative="1" as="geometry">
            <mxPoint x="638" y="350.00000000000006" as="sourcePoint" />
            <mxPoint x="740" y="350" as="targetPoint" />
            <Array as="points">
              <mxPoint x="688" y="350" />
            </Array>
          </mxGeometry>
        </mxCell>
        <mxCell id="j7XD6nWHRz5pciVsjNQp-34" value="" style="shape=flexArrow;endArrow=classic;html=1;rounded=0;fontSize=12;fontColor=#000000;strokeColor=#007FFF;fillColor=#007FFF;sketch=0;width=1.3333333333333333;endSize=3;endWidth=10.222222222222223;" edge="1" parent="1">
          <mxGeometry width="50" height="50" relative="1" as="geometry">
            <mxPoint x="737.5" y="398" as="sourcePoint" />
            <mxPoint x="637.5" y="398" as="targetPoint" />
            <Array as="points">
              <mxPoint x="687.5" y="398" />
            </Array>
          </mxGeometry>
        </mxCell>
        <mxCell id="j7XD6nWHRz5pciVsjNQp-35" value="" style="shape=flexArrow;endArrow=classic;html=1;rounded=0;fontSize=12;fontColor=#000000;strokeColor=#007FFF;fillColor=#007FFF;sketch=0;width=1.3333333333333333;endSize=3;endWidth=10.222222222222223;" edge="1" parent="1">
          <mxGeometry width="50" height="50" relative="1" as="geometry">
            <mxPoint x="640" y="550" as="sourcePoint" />
            <mxPoint x="740" y="550" as="targetPoint" />
            <Array as="points">
              <mxPoint x="690" y="550" />
            </Array>
          </mxGeometry>
        </mxCell>
        <mxCell id="j7XD6nWHRz5pciVsjNQp-36" value="" style="shape=flexArrow;endArrow=classic;html=1;rounded=0;fontSize=12;fontColor=#000000;strokeColor=#007FFF;fillColor=#007FFF;sketch=0;width=1.3333333333333333;endSize=3;endWidth=10.222222222222223;" edge="1" parent="1">
          <mxGeometry width="50" height="50" relative="1" as="geometry">
            <mxPoint x="740" y="560.29" as="sourcePoint" />
            <mxPoint x="640" y="560.29" as="targetPoint" />
            <Array as="points">
              <mxPoint x="690" y="560.29" />
            </Array>
          </mxGeometry>
        </mxCell>
        <mxCell id="j7XD6nWHRz5pciVsjNQp-37" value="" style="shape=flexArrow;endArrow=classic;html=1;rounded=0;fontSize=12;fontColor=#000000;strokeColor=#007FFF;fillColor=#007FFF;sketch=0;width=1.3333333333333333;endSize=3;endWidth=10.222222222222223;" edge="1" parent="1">
          <mxGeometry width="50" height="50" relative="1" as="geometry">
            <mxPoint x="535" y="480" as="sourcePoint" />
            <mxPoint x="535" y="440" as="targetPoint" />
            <Array as="points">
              <mxPoint x="535" y="458.71000000000004" />
            </Array>
          </mxGeometry>
        </mxCell>
        <mxCell id="j7XD6nWHRz5pciVsjNQp-38" value="" style="shape=flexArrow;endArrow=classic;html=1;rounded=0;fontSize=12;fontColor=#000000;strokeColor=#007FFF;fillColor=#007FFF;sketch=0;width=1.3333333333333333;endSize=3;endWidth=10.222222222222223;" edge="1" parent="1">
          <mxGeometry width="50" height="50" relative="1" as="geometry">
            <mxPoint x="550" y="450" as="sourcePoint" />
            <mxPoint x="550" y="487" as="targetPoint" />
            <Array as="points">
              <mxPoint x="550" y="466" />
            </Array>
          </mxGeometry>
        </mxCell>
        <mxCell id="j7XD6nWHRz5pciVsjNQp-39" value="" style="verticalLabelPosition=bottom;sketch=0;html=1;fillColor=#007FFF;strokeColor=none;verticalAlign=top;pointerEvents=1;align=center;shape=mxgraph.cisco_safe.people_places_things_icons.icon2;rounded=1;glass=0;fontSize=12;fontColor=#000000;" vertex="1" parent="1">
          <mxGeometry x="200" y="262.25" width="110" height="95.5" as="geometry" />
        </mxCell>
        <mxCell id="j7XD6nWHRz5pciVsjNQp-40" value="Make Request" style="text;html=1;strokeColor=#666666;fillColor=#f5f5f5;align=center;verticalAlign=middle;whiteSpace=wrap;rounded=1;fontSize=12;fontColor=#333333;glass=0;" vertex="1" parent="1">
          <mxGeometry x="330" y="262.25" width="95" height="30" as="geometry" />
        </mxCell>
        <mxCell id="j7XD6nWHRz5pciVsjNQp-41" value="Receive Results" style="text;html=1;strokeColor=#666666;fillColor=#f5f5f5;align=center;verticalAlign=middle;whiteSpace=wrap;rounded=1;fontSize=12;fontColor=#333333;glass=0;" vertex="1" parent="1">
          <mxGeometry x="330" y="332" width="95" height="30" as="geometry" />
        </mxCell>
        <mxCell id="j7XD6nWHRz5pciVsjNQp-42" value="&lt;b&gt;&lt;font color=&quot;#ffffff&quot;&gt;API&lt;/font&gt;&lt;/b&gt;" style="text;html=1;strokeColor=#6c8ebf;fillColor=#007FFF;align=center;verticalAlign=middle;whiteSpace=wrap;rounded=1;fontSize=14;" vertex="1" parent="1">
          <mxGeometry x="643.75" y="357.75" width="82.5" height="30" as="geometry" />
        </mxCell>
        <mxCell id="j7XD6nWHRz5pciVsjNQp-45" value="Request" style="text;html=1;strokeColor=#666666;fillColor=#f5f5f5;align=center;verticalAlign=middle;whiteSpace=wrap;rounded=1;fontSize=12;fontColor=#333333;glass=0;" vertex="1" parent="1">
          <mxGeometry x="637.5" y="302" width="95" height="30" as="geometry" />
        </mxCell>
        <mxCell id="j7XD6nWHRz5pciVsjNQp-46" value="Response" style="text;html=1;strokeColor=#666666;fillColor=#f5f5f5;align=center;verticalAlign=middle;whiteSpace=wrap;rounded=1;fontSize=12;fontColor=#333333;glass=0;" vertex="1" parent="1">
          <mxGeometry x="637.5" y="413.5" width="95" height="30" as="geometry" />
        </mxCell>
      </root>
    </mxGraphModel>
  </diagram>
</mxfile>
